<svg id="visual" viewBox="0 0 1920 1080" width="1920" height="1080" xmlns="http://www.w3.org/2000/svg" xmlns:xlink="http://www.w3.org/1999/xlink" version="1.1"><rect x="0" y="0" width="1920" height="1080" fill="#001220"></rect><path d="M0 651L45.7 654.2C91.3 657.3 182.7 663.7 274.2 686.2C365.7 708.7 457.3 747.3 548.8 763.2C640.3 779 731.7 772 823 764.5C914.3 757 1005.7 749 1097 755C1188.3 761 1279.7 781 1371.2 787.2C1462.7 793.3 1554.3 785.7 1645.8 780.5C1737.3 775.3 1828.7 772.7 1874.3 771.3L1920 770L1920 1081L1874.3 1081C1828.7 1081 1737.3 1081 1645.8 1081C1554.3 1081 1462.7 1081 1371.2 1081C1279.7 1081 1188.3 1081 1097 1081C1005.7 1081 914.3 1081 823 1081C731.7 1081 640.3 1081 548.8 1081C457.3 1081 365.7 1081 274.2 1081C182.7 1081 91.3 1081 45.7 1081L0 1081Z" fill="#fa7268"></path><path d="M0 779L45.7 780.3C91.3 781.7 182.7 784.3 274.2 787C365.7 789.7 457.3 792.3 548.8 784.7C640.3 777 731.7 759 823 751C914.3 743 1005.7 745 1097 743.3C1188.3 741.7 1279.7 736.3 1371.2 749.5C1462.7 762.7 1554.3 794.3 1645.8 810.2C1737.3 826 1828.7 826 1874.3 826L1920 826L1920 1081L1874.3 1081C1828.7 1081 1737.3 1081 1645.8 1081C1554.3 1081 1462.7 1081 1371.2 1081C1279.7 1081 1188.3 1081 1097 1081C1005.7 1081 914.3 1081 823 1081C731.7 1081 640.3 1081 548.8 1081C457.3 1081 365.7 1081 274.2 1081C182.7 1081 91.3 1081 45.7 1081L0 1081Z" fill="#ef5f67"></path><path d="M0 897L45.7 889C91.3 881 182.7 865 274.2 850.7C365.7 836.3 457.3 823.7 548.8 831.2C640.3 838.7 731.7 866.3 823 883C914.3 899.7 1005.7 905.3 1097 903.5C1188.3 901.7 1279.7 892.3 1371.2 886.2C1462.7 880 1554.3 877 1645.8 869C1737.3 861 1828.7 848 1874.3 841.5L1920 835L1920 1081L1874.3 1081C1828.7 1081 1737.3 1081 1645.8 1081C1554.3 1081 1462.7 1081 1371.2 1081C1279.7 1081 1188.3 1081 1097 1081C1005.7 1081 914.3 1081 823 1081C731.7 1081 640.3 1081 548.8 1081C457.3 1081 365.7 1081 274.2 1081C182.7 1081 91.3 1081 45.7 1081L0 1081Z" fill="#e34c67"></path><path d="M0 959L45.7 949.5C91.3 940 182.7 921 274.2 909.7C365.7 898.3 457.3 894.7 548.8 901.5C640.3 908.3 731.7 925.7 823 937.8C914.3 950 1005.7 957 1097 954.5C1188.3 952 1279.7 940 1371.2 937.7C1462.7 935.3 1554.3 942.7 1645.8 943.8C1737.3 945 1828.7 940 1874.3 937.5L1920 935L1920 1081L1874.3 1081C1828.7 1081 1737.3 1081 1645.8 1081C1554.3 1081 1462.7 1081 1371.2 1081C1279.7 1081 1188.3 1081 1097 1081C1005.7 1081 914.3 1081 823 1081C731.7 1081 640.3 1081 548.8 1081C457.3 1081 365.7 1081 274.2 1081C182.7 1081 91.3 1081 45.7 1081L0 1081Z" fill="#d53867"></path><path d="M0 1001L45.7 994C91.3 987 182.7 973 274.2 967.5C365.7 962 457.3 965 548.8 965.2C640.3 965.3 731.7 962.7 823 959.5C914.3 956.3 1005.7 952.7 1097 959.8C1188.3 967 1279.7 985 1371.2 986.7C1462.7 988.3 1554.3 973.7 1645.8 972.7C1737.3 971.7 1828.7 984.3 1874.3 990.7L1920 997L1920 1081L1874.3 1081C1828.7 1081 1737.3 1081 1645.8 1081C1554.3 1081 1462.7 1081 1371.2 1081C1279.7 1081 1188.3 1081 1097 1081C1005.7 1081 914.3 1081 823 1081C731.7 1081 640.3 1081 548.8 1081C457.3 1081 365.7 1081 274.2 1081C182.7 1081 91.3 1081 45.7 1081L0 1081Z" fill="#c62368"></path></svg>