<svg id="visual" viewBox="0 0 1920 1080" width="1920" height="1080" xmlns="http://www.w3.org/2000/svg" xmlns:xlink="http://www.w3.org/1999/xlink" version="1.1"><rect x="0" y="0" width="1920" height="1080" fill="#001220"></rect><path d="M0 808L45.7 799.8C91.3 791.7 182.7 775.3 274.2 777.8C365.7 780.3 457.3 801.7 548.8 797C640.3 792.3 731.7 761.7 823 763.3C914.3 765 1005.7 799 1097 806.2C1188.3 813.3 1279.7 793.7 1371.2 780.7C1462.7 767.7 1554.3 761.3 1645.8 769.5C1737.3 777.7 1828.7 800.3 1874.3 811.7L1920 823L1920 1081L1874.3 1081C1828.7 1081 1737.3 1081 1645.8 1081C1554.3 1081 1462.7 1081 1371.2 1081C1279.7 1081 1188.3 1081 1097 1081C1005.7 1081 914.3 1081 823 1081C731.7 1081 640.3 1081 548.8 1081C457.3 1081 365.7 1081 274.2 1081C182.7 1081 91.3 1081 45.7 1081L0 1081Z" fill="#828294"></path><path d="M0 818L45.7 831.3C91.3 844.7 182.7 871.3 274.2 871C365.7 870.7 457.3 843.3 548.8 838C640.3 832.7 731.7 849.3 823 850.7C914.3 852 1005.7 838 1097 831.3C1188.3 824.7 1279.7 825.3 1371.2 824.3C1462.7 823.3 1554.3 820.7 1645.8 818.2C1737.3 815.7 1828.7 813.3 1874.3 812.2L1920 811L1920 1081L1874.3 1081C1828.7 1081 1737.3 1081 1645.8 1081C1554.3 1081 1462.7 1081 1371.2 1081C1279.7 1081 1188.3 1081 1097 1081C1005.7 1081 914.3 1081 823 1081C731.7 1081 640.3 1081 548.8 1081C457.3 1081 365.7 1081 274.2 1081C182.7 1081 91.3 1081 45.7 1081L0 1081Z" fill="#6d6e8e"></path><path d="M0 864L45.7 869.2C91.3 874.3 182.7 884.7 274.2 888C365.7 891.3 457.3 887.7 548.8 881.8C640.3 876 731.7 868 823 873.8C914.3 879.7 1005.7 899.3 1097 909.7C1188.3 920 1279.7 921 1371.2 914.8C1462.7 908.7 1554.3 895.3 1645.8 883.2C1737.3 871 1828.7 860 1874.3 854.5L1920 849L1920 1081L1874.3 1081C1828.7 1081 1737.3 1081 1645.8 1081C1554.3 1081 1462.7 1081 1371.2 1081C1279.7 1081 1188.3 1081 1097 1081C1005.7 1081 914.3 1081 823 1081C731.7 1081 640.3 1081 548.8 1081C457.3 1081 365.7 1081 274.2 1081C182.7 1081 91.3 1081 45.7 1081L0 1081Z" fill="#575b88"></path><path d="M0 920L45.7 922.7C91.3 925.3 182.7 930.7 274.2 934.5C365.7 938.3 457.3 940.7 548.8 940.7C640.3 940.7 731.7 938.3 823 942.2C914.3 946 1005.7 956 1097 956.8C1188.3 957.7 1279.7 949.3 1371.2 945.8C1462.7 942.3 1554.3 943.7 1645.8 947.3C1737.3 951 1828.7 957 1874.3 960L1920 963L1920 1081L1874.3 1081C1828.7 1081 1737.3 1081 1645.8 1081C1554.3 1081 1462.7 1081 1371.2 1081C1279.7 1081 1188.3 1081 1097 1081C1005.7 1081 914.3 1081 823 1081C731.7 1081 640.3 1081 548.8 1081C457.3 1081 365.7 1081 274.2 1081C182.7 1081 91.3 1081 45.7 1081L0 1081Z" fill="#3f4982"></path><path d="M0 1036L45.7 1034.3C91.3 1032.7 182.7 1029.3 274.2 1023.2C365.7 1017 457.3 1008 548.8 1002.2C640.3 996.3 731.7 993.7 823 995C914.3 996.3 1005.7 1001.7 1097 1001.5C1188.3 1001.3 1279.7 995.7 1371.2 992C1462.7 988.3 1554.3 986.7 1645.8 988C1737.3 989.3 1828.7 993.7 1874.3 995.8L1920 998L1920 1081L1874.3 1081C1828.7 1081 1737.3 1081 1645.8 1081C1554.3 1081 1462.7 1081 1371.2 1081C1279.7 1081 1188.3 1081 1097 1081C1005.7 1081 914.3 1081 823 1081C731.7 1081 640.3 1081 548.8 1081C457.3 1081 365.7 1081 274.2 1081C182.7 1081 91.3 1081 45.7 1081L0 1081Z" fill="#1e387c"></path></svg>